<mxfile host="Electron" agent="Mozilla/5.0 (Macintosh; Intel Mac OS X 10_15_7) AppleWebKit/537.36 (KHTML, like Gecko) draw.io/28.0.4 Chrome/138.0.7204.97 Electron/37.2.1 Safari/537.36" version="28.0.4">
  <diagram name="Page-1" id="j4-7G3dGEpJLVW2OAJ64">
    <mxGraphModel dx="1301" dy="2020" grid="1" gridSize="10" guides="1" tooltips="1" connect="1" arrows="1" fold="1" page="1" pageScale="1" pageWidth="827" pageHeight="1169" math="0" shadow="0">
      <root>
        <mxCell id="0" />
        <mxCell id="1" parent="0" />
        <mxCell id="-ypWEho-ssSmYD_AyHwd-1" value="&lt;h1&gt;&lt;br&gt;&lt;/h1&gt;" style="text;html=1;align=center;verticalAlign=middle;whiteSpace=wrap;rounded=0;" vertex="1" parent="1">
          <mxGeometry x="220" y="-560" width="330" height="30" as="geometry" />
        </mxCell>
        <mxCell id="-ypWEho-ssSmYD_AyHwd-2" value="&lt;meta charset=&quot;utf-8&quot;&gt;&lt;h1 style=&quot;forced-color-adjust: none; box-shadow: none !important; color: rgb(255, 255, 255); font-family: Helvetica; font-style: normal; font-variant-ligatures: normal; font-variant-caps: normal; letter-spacing: normal; orphans: 2; text-align: center; text-indent: 0px; text-transform: none; widows: 2; word-spacing: 0px; -webkit-text-stroke-width: 0px; white-space: normal; background-color: rgb(27, 29, 30); text-decoration-thickness: initial; text-decoration-style: initial; text-decoration-color: initial;&quot;&gt;High level Architecture&lt;/h1&gt;" style="rounded=0;whiteSpace=wrap;html=1;fontStyle=1" vertex="1" parent="1">
          <mxGeometry x="380" y="-644" width="350" height="60" as="geometry" />
        </mxCell>
        <mxCell id="-ypWEho-ssSmYD_AyHwd-5" value="" style="rounded=0;whiteSpace=wrap;html=1;fillColor=none;" vertex="1" parent="1">
          <mxGeometry x="40" y="-433" width="120" height="410" as="geometry" />
        </mxCell>
        <mxCell id="-ypWEho-ssSmYD_AyHwd-6" value="&lt;font style=&quot;font-size: 20px;&quot;&gt;Source&lt;/font&gt;" style="rounded=1;whiteSpace=wrap;html=1;fontSize=22;" vertex="1" parent="1">
          <mxGeometry x="50" y="-443" width="100" height="20" as="geometry" />
        </mxCell>
        <mxCell id="-ypWEho-ssSmYD_AyHwd-8" value="&lt;font style=&quot;font-size: 20px;&quot;&gt;Data Warehouse&lt;/font&gt;" style="rounded=1;whiteSpace=wrap;html=1;fontSize=22;fillColor=default;" vertex="1" parent="1">
          <mxGeometry x="420" y="-540" width="240" height="40" as="geometry" />
        </mxCell>
        <mxCell id="-ypWEho-ssSmYD_AyHwd-9" value="" style="rounded=0;whiteSpace=wrap;html=1;fillColor=none;" vertex="1" parent="1">
          <mxGeometry x="929" y="-455" width="120" height="471" as="geometry" />
        </mxCell>
        <mxCell id="-ypWEho-ssSmYD_AyHwd-10" value="&lt;font style=&quot;font-size: 20px;&quot;&gt;Consume&lt;/font&gt;" style="rounded=1;whiteSpace=wrap;html=1;fontSize=22;" vertex="1" parent="1">
          <mxGeometry x="939" y="-469" width="100" height="20" as="geometry" />
        </mxCell>
        <mxCell id="-ypWEho-ssSmYD_AyHwd-13" value="&lt;b&gt;&lt;font style=&quot;color: rgb(0, 0, 0);&quot;&gt;Silver Layer&lt;/font&gt;&lt;/b&gt;" style="rounded=1;whiteSpace=wrap;html=1;fillColor=#CCE5FF;" vertex="1" parent="1">
          <mxGeometry x="450" y="-429" width="140" height="20" as="geometry" />
        </mxCell>
        <mxCell id="-ypWEho-ssSmYD_AyHwd-20" value="&lt;b&gt;&lt;font style=&quot;color: rgb(0, 0, 0);&quot;&gt;Bronze Layer&lt;/font&gt;&lt;/b&gt;" style="rounded=1;whiteSpace=wrap;html=1;fillColor=#fad7ac;strokeColor=#b46504;" vertex="1" parent="1">
          <mxGeometry x="240" y="-426" width="140" height="20" as="geometry" />
        </mxCell>
        <mxCell id="-ypWEho-ssSmYD_AyHwd-22" value="&lt;b&gt;&lt;font style=&quot;color: rgb(0, 0, 0);&quot;&gt;Gold Layer&lt;/font&gt;&lt;/b&gt;" style="rounded=1;whiteSpace=wrap;html=1;fillColor=#ffcd28;gradientColor=#ffa500;strokeColor=#d79b00;" vertex="1" parent="1">
          <mxGeometry x="675" y="-426" width="140" height="20" as="geometry" />
        </mxCell>
        <mxCell id="-ypWEho-ssSmYD_AyHwd-24" value="" style="image;aspect=fixed;html=1;points=[];align=center;fontSize=12;image=img/lib/azure2/general/Folder_Blank.svg;" vertex="1" parent="1">
          <mxGeometry x="65.5" y="-393" width="69" height="56.00000000000001" as="geometry" />
        </mxCell>
        <mxCell id="-ypWEho-ssSmYD_AyHwd-25" value="" style="verticalLabelPosition=bottom;html=1;verticalAlign=top;align=center;strokeColor=none;fillColor=#00BEF2;shape=mxgraph.azure.file_2;pointerEvents=1;" vertex="1" parent="1">
          <mxGeometry x="110" y="-363" width="30" height="30" as="geometry" />
        </mxCell>
        <mxCell id="-ypWEho-ssSmYD_AyHwd-26" value="&lt;b&gt;CRM&lt;/b&gt;" style="text;html=1;align=center;verticalAlign=middle;whiteSpace=wrap;rounded=0;" vertex="1" parent="1">
          <mxGeometry x="65.5" y="-337" width="60" height="30" as="geometry" />
        </mxCell>
        <mxCell id="-ypWEho-ssSmYD_AyHwd-27" value="" style="image;aspect=fixed;html=1;points=[];align=center;fontSize=12;image=img/lib/azure2/general/Folder_Blank.svg;" vertex="1" parent="1">
          <mxGeometry x="65.5" y="-303" width="69" height="56.00000000000001" as="geometry" />
        </mxCell>
        <mxCell id="-ypWEho-ssSmYD_AyHwd-28" value="" style="verticalLabelPosition=bottom;html=1;verticalAlign=top;align=center;strokeColor=none;fillColor=#00BEF2;shape=mxgraph.azure.file_2;pointerEvents=1;" vertex="1" parent="1">
          <mxGeometry x="110" y="-273" width="30" height="30" as="geometry" />
        </mxCell>
        <mxCell id="-ypWEho-ssSmYD_AyHwd-29" value="&lt;b&gt;ERP&lt;/b&gt;" style="text;html=1;align=center;verticalAlign=middle;whiteSpace=wrap;rounded=0;" vertex="1" parent="1">
          <mxGeometry x="65.5" y="-247" width="60" height="30" as="geometry" />
        </mxCell>
        <mxCell id="-ypWEho-ssSmYD_AyHwd-34" value="" style="line;strokeWidth=1;rotatable=0;dashed=0;labelPosition=right;align=left;verticalAlign=middle;spacingTop=0;spacingLeft=6;points=[];portConstraint=eastwest;" vertex="1" parent="1">
          <mxGeometry x="70" y="-208" width="60" height="10" as="geometry" />
        </mxCell>
        <mxCell id="-ypWEho-ssSmYD_AyHwd-35" value="&lt;b&gt;Object Type : &lt;/b&gt;&lt;i&gt;CSV File&lt;/i&gt;&lt;br&gt;&lt;br&gt;&lt;b&gt;Interface : &lt;/b&gt;&lt;i&gt;File in folder&lt;/i&gt;" style="text;html=1;align=center;verticalAlign=middle;whiteSpace=wrap;rounded=0;" vertex="1" parent="1">
          <mxGeometry x="55" y="-173" width="90" height="80" as="geometry" />
        </mxCell>
        <mxCell id="-ypWEho-ssSmYD_AyHwd-36" value="" style="html=1;verticalLabelPosition=bottom;align=center;labelBackgroundColor=#ffffff;verticalAlign=top;strokeWidth=2;strokeColor=#d79b00;shadow=0;dashed=0;shape=mxgraph.ios7.icons.data;fillColor=#ffe6cc;" vertex="1" parent="1">
          <mxGeometry x="280" y="-385.78000000000003" width="50" height="61.55" as="geometry" />
        </mxCell>
        <mxCell id="-ypWEho-ssSmYD_AyHwd-37" value="" style="html=1;verticalLabelPosition=bottom;align=center;labelBackgroundColor=#ffffff;verticalAlign=top;strokeWidth=2;strokeColor=#6c8ebf;shadow=0;dashed=0;shape=mxgraph.ios7.icons.data;fillColor=#dae8fc;" vertex="1" parent="1">
          <mxGeometry x="510" y="-388.78" width="50" height="61.55" as="geometry" />
        </mxCell>
        <mxCell id="-ypWEho-ssSmYD_AyHwd-38" value="" style="html=1;verticalLabelPosition=bottom;align=center;labelBackgroundColor=#ffffff;verticalAlign=top;strokeWidth=2;strokeColor=#BD7000;shadow=0;dashed=0;shape=mxgraph.ios7.icons.data;fillColor=#f0a30a;fontColor=#000000;" vertex="1" parent="1">
          <mxGeometry x="722" y="-385.78" width="50" height="61.55" as="geometry" />
        </mxCell>
        <mxCell id="-ypWEho-ssSmYD_AyHwd-44" value="Raw Data" style="text;html=1;align=center;verticalAlign=middle;whiteSpace=wrap;rounded=0;" vertex="1" parent="1">
          <mxGeometry x="276" y="-319" width="60" height="23" as="geometry" />
        </mxCell>
        <mxCell id="-ypWEho-ssSmYD_AyHwd-45" value="Cleaned, Standardized Data" style="text;html=1;align=center;verticalAlign=middle;whiteSpace=wrap;rounded=0;" vertex="1" parent="1">
          <mxGeometry x="480" y="-321" width="110" height="23" as="geometry" />
        </mxCell>
        <mxCell id="-ypWEho-ssSmYD_AyHwd-46" value="Business Ready Data" style="text;html=1;align=center;verticalAlign=middle;whiteSpace=wrap;rounded=0;" vertex="1" parent="1">
          <mxGeometry x="695" y="-318" width="110" height="22" as="geometry" />
        </mxCell>
        <mxCell id="-ypWEho-ssSmYD_AyHwd-47" value="" style="line;strokeWidth=1;rotatable=0;dashed=0;labelPosition=right;align=left;verticalAlign=middle;spacingTop=0;spacingLeft=6;points=[];portConstraint=eastwest;" vertex="1" parent="1">
          <mxGeometry x="278" y="-290" width="60" height="10" as="geometry" />
        </mxCell>
        <mxCell id="-ypWEho-ssSmYD_AyHwd-48" value="" style="line;strokeWidth=1;rotatable=0;dashed=0;labelPosition=right;align=left;verticalAlign=middle;spacingTop=0;spacingLeft=6;points=[];portConstraint=eastwest;" vertex="1" parent="1">
          <mxGeometry x="505" y="-289" width="60" height="10" as="geometry" />
        </mxCell>
        <mxCell id="-ypWEho-ssSmYD_AyHwd-49" value="" style="line;strokeWidth=1;rotatable=0;dashed=0;labelPosition=right;align=left;verticalAlign=middle;spacingTop=0;spacingLeft=6;points=[];portConstraint=eastwest;" vertex="1" parent="1">
          <mxGeometry x="722" y="-286" width="60" height="10" as="geometry" />
        </mxCell>
        <mxCell id="-ypWEho-ssSmYD_AyHwd-50" value="&lt;b&gt;Object Type : &lt;/b&gt;&lt;i&gt;Tables&lt;br&gt;&lt;/i&gt;&lt;br&gt;&lt;div style=&quot;&quot;&gt;&lt;b style=&quot;background-color: transparent; color: light-dark(rgb(0, 0, 0), rgb(255, 255, 255));&quot;&gt;Load :&amp;nbsp;&lt;/b&gt;&lt;/div&gt;&lt;div&gt;&lt;ul&gt;&lt;li&gt;Batch Processing&lt;/li&gt;&lt;li&gt;full Load&lt;/li&gt;&lt;li&gt;truncate &amp;amp; Insert&lt;br&gt;&lt;/li&gt;&lt;/ul&gt;&lt;div&gt;No&amp;nbsp;&lt;b&gt;Transformation&lt;br&gt;&lt;br&gt;Data model :&amp;nbsp;&lt;/b&gt;None (as-is&lt;span style=&quot;color: light-dark(rgb(0, 0, 0), rgb(255, 255, 255)); background-color: transparent;&quot;&gt;)&lt;/span&gt;&lt;/div&gt;&lt;/div&gt;" style="text;html=1;align=left;verticalAlign=middle;whiteSpace=wrap;rounded=0;" vertex="1" parent="1">
          <mxGeometry x="240" y="-276" width="150" height="200" as="geometry" />
        </mxCell>
        <mxCell id="-ypWEho-ssSmYD_AyHwd-54" value="&lt;b&gt;Objective type : &lt;/b&gt;Tables&lt;div&gt;&lt;br&gt;&lt;/div&gt;&lt;div&gt;&lt;b&gt;Load:&lt;/b&gt;&lt;br&gt;&lt;ul style=&quot;&quot;&gt;&lt;li style=&quot;&quot;&gt;&lt;i&gt;Batch Processing&lt;/i&gt;&lt;/li&gt;&lt;li style=&quot;&quot;&gt;&lt;i&gt;Full Load&lt;/i&gt;&lt;/li&gt;&lt;li style=&quot;&quot;&gt;&lt;i&gt;Truncate &amp;amp; Insert&lt;/i&gt;&lt;/li&gt;&lt;/ul&gt;&lt;div&gt;&lt;b&gt;Transformation:&lt;/b&gt;&lt;/div&gt;&lt;/div&gt;&lt;div&gt;&lt;ul&gt;&lt;li&gt;&lt;i&gt;Data Cleansing&lt;/i&gt;&lt;/li&gt;&lt;li&gt;&lt;i&gt;Data standrization&lt;/i&gt;&lt;/li&gt;&lt;li&gt;&lt;i&gt;Data Normalization&lt;/i&gt;&lt;/li&gt;&lt;li&gt;&lt;i&gt;Derived Columns&lt;/i&gt;&lt;/li&gt;&lt;li&gt;&lt;i&gt;Data Enrichment&lt;/i&gt;&lt;/li&gt;&lt;/ul&gt;&lt;div&gt;&lt;i style=&quot;&quot;&gt;&lt;b&gt;Data Model : &lt;/b&gt;None(as-in)&lt;/i&gt;&lt;/div&gt;&lt;/div&gt;" style="text;html=1;align=left;verticalAlign=middle;whiteSpace=wrap;rounded=0;" vertex="1" parent="1">
          <mxGeometry x="460" y="-269.5" width="140" height="249" as="geometry" />
        </mxCell>
        <mxCell id="-ypWEho-ssSmYD_AyHwd-55" value="&lt;span style=&quot;forced-color-adjust: none; box-shadow: none !important; color: rgb(255, 255, 255); font-family: Helvetica; font-size: 12px; font-style: normal; font-variant-ligatures: normal; font-variant-caps: normal; letter-spacing: normal; orphans: 2; text-align: left; text-indent: 0px; text-transform: none; widows: 2; word-spacing: 0px; -webkit-text-stroke-width: 0px; white-space: normal; background-color: rgb(27, 29, 30); text-decoration-thickness: initial; text-decoration-style: initial; text-decoration-color: initial;&quot;&gt;&lt;b&gt;Objective type :&amp;nbsp;&lt;/b&gt;Views&lt;/span&gt;&lt;div style=&quot;forced-color-adjust: none; box-shadow: none !important; color: rgb(255, 255, 255); font-family: Helvetica; font-size: 12px; font-style: normal; font-variant-ligatures: normal; font-variant-caps: normal; font-weight: 400; letter-spacing: normal; orphans: 2; text-align: left; text-indent: 0px; text-transform: none; widows: 2; word-spacing: 0px; -webkit-text-stroke-width: 0px; white-space: normal; background-color: rgb(27, 29, 30); text-decoration-thickness: initial; text-decoration-style: initial; text-decoration-color: initial;&quot;&gt;&lt;br style=&quot;forced-color-adjust: none; box-shadow: none !important;&quot;&gt;&lt;/div&gt;&lt;div style=&quot;forced-color-adjust: none; box-shadow: none !important; color: rgb(255, 255, 255); font-family: Helvetica; font-size: 12px; font-style: normal; font-variant-ligatures: normal; font-variant-caps: normal; font-weight: 400; letter-spacing: normal; orphans: 2; text-align: left; text-indent: 0px; text-transform: none; widows: 2; word-spacing: 0px; -webkit-text-stroke-width: 0px; white-space: normal; background-color: rgb(27, 29, 30); text-decoration-thickness: initial; text-decoration-style: initial; text-decoration-color: initial;&quot;&gt;&lt;b style=&quot;forced-color-adjust: none; box-shadow: none !important;&quot;&gt;No Load&lt;/b&gt;&lt;/div&gt;&lt;div style=&quot;forced-color-adjust: none; color: rgb(255, 255, 255); font-family: Helvetica; font-size: 12px; font-style: normal; font-variant-ligatures: normal; font-variant-caps: normal; letter-spacing: normal; orphans: 2; text-align: left; text-indent: 0px; text-transform: none; widows: 2; word-spacing: 0px; -webkit-text-stroke-width: 0px; white-space: normal; background-color: rgb(27, 29, 30); text-decoration-thickness: initial; text-decoration-style: initial; text-decoration-color: initial; box-shadow: none !important;&quot;&gt;&lt;b&gt;&lt;br&gt;&lt;/b&gt;&lt;div style=&quot;font-weight: 400; forced-color-adjust: none; box-shadow: none !important;&quot;&gt;&lt;b style=&quot;forced-color-adjust: none; box-shadow: none !important;&quot;&gt;Transformation:&lt;/b&gt;&lt;/div&gt;&lt;/div&gt;&lt;div style=&quot;forced-color-adjust: none; color: rgb(255, 255, 255); font-family: Helvetica; font-size: 12px; font-variant-ligatures: normal; font-variant-caps: normal; letter-spacing: normal; orphans: 2; text-align: left; text-indent: 0px; text-transform: none; widows: 2; word-spacing: 0px; -webkit-text-stroke-width: 0px; white-space: normal; background-color: rgb(27, 29, 30); text-decoration-thickness: initial; text-decoration-style: initial; text-decoration-color: initial; box-shadow: none !important;&quot;&gt;&lt;ul style=&quot;font-weight: 400; forced-color-adjust: none; box-shadow: none !important;&quot;&gt;&lt;li style=&quot;forced-color-adjust: none; box-shadow: none !important;&quot;&gt;&lt;i&gt;Data Integrations&lt;/i&gt;&lt;/li&gt;&lt;li style=&quot;forced-color-adjust: none; box-shadow: none !important;&quot;&gt;&lt;i&gt;Aggregations&lt;/i&gt;&lt;/li&gt;&lt;li style=&quot;forced-color-adjust: none; box-shadow: none !important;&quot;&gt;&lt;i&gt;Business Logics&lt;/i&gt;&lt;/li&gt;&lt;/ul&gt;&lt;div style=&quot;font-style: normal; forced-color-adjust: none; box-shadow: none !important;&quot;&gt;&lt;i style=&quot;forced-color-adjust: none; box-shadow: none !important;&quot;&gt;&lt;span style=&quot;forced-color-adjust: none; box-shadow: none !important;&quot;&gt;&lt;b style=&quot;font-weight: 400;&quot;&gt;Data Model :&amp;nbsp;&lt;/b&gt;&lt;br&gt;&lt;ul style=&quot;&quot;&gt;&lt;li style=&quot;&quot;&gt;Star schema&lt;/li&gt;&lt;li style=&quot;&quot;&gt;Flat Table&lt;/li&gt;&lt;li style=&quot;&quot;&gt;Aggregated Table&lt;/li&gt;&lt;/ul&gt;&lt;/span&gt;&lt;/i&gt;&lt;/div&gt;&lt;/div&gt;" style="text;whiteSpace=wrap;html=1;" vertex="1" parent="1">
          <mxGeometry x="683" y="-266.5" width="140" height="221" as="geometry" />
        </mxCell>
        <mxCell id="-ypWEho-ssSmYD_AyHwd-57" value="" style="rounded=1;whiteSpace=wrap;html=1;fillColor=none;" vertex="1" parent="1">
          <mxGeometry x="220" y="-460.5" width="180" height="470.5" as="geometry" />
        </mxCell>
        <mxCell id="-ypWEho-ssSmYD_AyHwd-58" value="" style="rounded=1;whiteSpace=wrap;html=1;fillColor=none;" vertex="1" parent="1">
          <mxGeometry x="420" y="-460" width="200" height="470" as="geometry" />
        </mxCell>
        <mxCell id="-ypWEho-ssSmYD_AyHwd-60" value="" style="rounded=1;whiteSpace=wrap;html=1;fillColor=none;" vertex="1" parent="1">
          <mxGeometry x="651" y="-459.78" width="199" height="469.78" as="geometry" />
        </mxCell>
        <mxCell id="-ypWEho-ssSmYD_AyHwd-61" value="" style="rounded=0;whiteSpace=wrap;html=1;fillColor=none;strokeColor=default;" vertex="1" parent="1">
          <mxGeometry x="200" y="-490" width="680" height="535.39" as="geometry" />
        </mxCell>
        <mxCell id="-ypWEho-ssSmYD_AyHwd-62" value="" style="image;aspect=fixed;html=1;points=[];align=center;fontSize=12;image=img/lib/azure2/power_platform/PowerBI.svg;" vertex="1" parent="1">
          <mxGeometry x="973.5" y="-424.23" width="51" height="68" as="geometry" />
        </mxCell>
        <mxCell id="-ypWEho-ssSmYD_AyHwd-67" value="PowerBI and Reporting" style="text;html=1;align=center;verticalAlign=middle;whiteSpace=wrap;rounded=0;" vertex="1" parent="1">
          <mxGeometry x="964.5" y="-345" width="60" height="30" as="geometry" />
        </mxCell>
        <mxCell id="-ypWEho-ssSmYD_AyHwd-69" value="" style="sketch=0;outlineConnect=0;fontColor=#232F3E;gradientColor=none;fillColor=#8C4FFF;strokeColor=none;dashed=0;verticalLabelPosition=bottom;verticalAlign=top;align=center;html=1;fontSize=12;fontStyle=0;aspect=fixed;pointerEvents=1;shape=mxgraph.aws4.redshift_query_editor_v20_light;" vertex="1" parent="1">
          <mxGeometry x="965" y="-285.31" width="68" height="68" as="geometry" />
        </mxCell>
        <mxCell id="-ypWEho-ssSmYD_AyHwd-70" value="SQL query" style="text;html=1;align=center;verticalAlign=middle;whiteSpace=wrap;rounded=0;" vertex="1" parent="1">
          <mxGeometry x="959" y="-209" width="60" height="30" as="geometry" />
        </mxCell>
        <mxCell id="-ypWEho-ssSmYD_AyHwd-71" value="" style="image;sketch=0;aspect=fixed;html=1;points=[];align=center;fontSize=12;image=img/lib/mscae/Machine_Learning_Studio_Web_Services.svg;" vertex="1" parent="1">
          <mxGeometry x="969" y="-159" width="50" height="50" as="geometry" />
        </mxCell>
        <mxCell id="-ypWEho-ssSmYD_AyHwd-72" value="Machine Learning" style="text;html=1;align=center;verticalAlign=middle;whiteSpace=wrap;rounded=0;" vertex="1" parent="1">
          <mxGeometry x="964" y="-104.5" width="60" height="30" as="geometry" />
        </mxCell>
      </root>
    </mxGraphModel>
  </diagram>
</mxfile>
